<mxfile host="app.diagrams.net" modified="2024-04-26T16:42:01.850Z" agent="Mozilla/5.0 (Macintosh; Intel Mac OS X 10_15_7) AppleWebKit/537.36 (KHTML, like Gecko) Chrome/124.0.0.0 Safari/537.36" version="24.3.0" etag="fqATQjPtt2PrEe-GnmMr" type="github">
  <diagram name="第 1 页" id="druYzMCdSd_b1opSaq4y">
    <mxGraphModel>
      <root>
        <mxCell id="0" />
        <mxCell id="1" parent="0" />
      </root>
    </mxGraphModel>
  </diagram>
</mxfile>
